<svg width="32" height="32" viewBox="0 0 32 32" fill="none" xmlns="http://www.w3.org/2000/svg">
<circle cx="16" cy="16" r="16" fill="url(#paint0_linear_21_1383)"/>
<path d="M12.1569 12.3022C11.2342 13.261 10.6668 14.5642 10.6668 16C10.6668 18.9455 13.0546 21.3333 16.0002 21.3333C16.7207 21.3333 17.4079 21.1905 18.0349 20.9315C18.1116 20.4311 17.9434 19.9511 17.8746 19.7831C17.7215 19.41 17.2162 18.7721 16.3728 17.8872C16.1476 17.6505 16.1621 17.469 16.2426 16.9295L16.2518 16.8686C16.3065 16.4991 16.3982 16.2806 17.6416 16.0832C18.2733 15.9831 18.4394 16.2355 18.6697 16.5851C18.6952 16.6239 18.7206 16.6619 18.7467 16.6999C18.9654 17.0198 19.1275 17.0929 19.3723 17.2043C19.482 17.254 19.6188 17.3167 19.8022 17.4209C20.2369 17.6693 20.2369 17.9498 20.2369 18.5648V18.6345C20.2369 18.8956 20.2114 19.1248 20.1712 19.3239C20.8987 18.4123 21.3335 17.2569 21.3335 16C21.3335 13.8006 20.0022 11.9121 18.1014 11.0966C17.7326 11.3454 17.2267 11.6982 17.0502 11.94C16.9599 12.0636 16.8323 12.6944 16.4173 12.7465C16.3086 12.7602 16.1627 12.7506 16.0082 12.7407C15.5938 12.7137 15.027 12.6774 14.8455 13.17C14.7303 13.4821 14.71 14.3296 15.0828 14.7695C15.1424 14.8398 15.154 14.9698 15.1134 15.1157C15.0602 15.3072 14.9526 15.4237 14.919 15.4478C14.8548 15.4109 14.7266 15.2621 14.6397 15.1608C14.4305 14.9177 14.1695 14.6149 13.8321 14.5212C13.7095 14.4872 13.5746 14.4591 13.4438 14.4316C13.0778 14.3549 12.6631 14.2676 12.5668 14.062C12.4964 13.9115 12.4967 13.7042 12.497 13.4851C12.497 13.2075 12.497 12.8935 12.361 12.5884C12.3085 12.4703 12.2381 12.3763 12.1569 12.3022ZM16.0002 22.6667C12.3183 22.6667 9.3335 19.6819 9.3335 16C9.3335 12.3181 12.3183 9.33334 16.0002 9.33334C19.682 9.33334 22.6668 12.3181 22.6668 16C22.6668 19.6819 19.682 22.6667 16.0002 22.6667Z" fill="#E3E9F6"/>
<defs>
<linearGradient id="paint0_linear_21_1383" x1="26" y1="2" x2="4.5" y2="28" gradientUnits="userSpaceOnUse">
<stop stop-color="#1D5CD3"/>
<stop offset="1" stop-color="#5281D8"/>
</linearGradient>
</defs>
</svg>
