<svg width="32" height="32" viewBox="0 0 32 32" fill="none" xmlns="http://www.w3.org/2000/svg">
<circle cx="16" cy="16" r="16" fill="url(#paint0_linear_21_1376)"/>
<path d="M21.3333 22.6667H10.6667C10.2985 22.6667 10 22.3682 10 22V9.99999C10 9.63181 10.2985 9.33333 10.6667 9.33333H21.3333C21.7015 9.33333 22 9.63181 22 9.99999V22C22 22.3682 21.7015 22.6667 21.3333 22.6667ZM20.6667 21.3333V10.6667H11.3333V21.3333H20.6667ZM12.6667 12H15.3333V14.6667H12.6667V12ZM12.6667 16H19.3333V17.3333H12.6667V16ZM12.6667 18.6667H19.3333V20H12.6667V18.6667ZM16.6667 12.6667H19.3333V14H16.6667V12.6667Z" fill="#E3E9F6"/>
<defs>
<linearGradient id="paint0_linear_21_1376" x1="26" y1="2" x2="4.5" y2="28" gradientUnits="userSpaceOnUse">
<stop stop-color="#1D5CD3"/>
<stop offset="1" stop-color="#5281D8"/>
</linearGradient>
</defs>
</svg>
