<svg width="134" height="31" viewBox="0 0 134 31" fill="none" xmlns="http://www.w3.org/2000/svg">
<rect width="21.0886" height="12.0056" rx="1.1151" transform="matrix(0.845555 -0.533888 0.573028 0.819536 2 16.9627)" fill="#36327F"/>
<rect x="0.197733" y="0.0398157" width="20.8099" height="11.7268" rx="0.975714" transform="matrix(0.845555 -0.533888 0.573028 0.819536 2.00772 17.0755)" stroke="black" stroke-opacity="0.29" stroke-width="0.278775"/>
<rect width="21.0898" height="1.74606" transform="matrix(0.845555 -0.533888 0.573028 0.819536 3.18311 18.6568)" fill="#EBEAFA"/>
<g filter="url(#filter0_d_61_5475)">
<rect width="21.0886" height="12.0056" rx="1.1151" transform="matrix(0.845555 -0.533888 0.573028 0.819536 3.71484 14.2466)" fill="#1D5CD3"/>
<rect x="0.197733" y="0.0398157" width="20.8099" height="11.7268" rx="0.975714" transform="matrix(0.845555 -0.533888 0.573028 0.819536 3.72257 14.3594)" stroke="black" stroke-opacity="0.29" stroke-width="0.278775"/>
</g>
<rect width="21.0898" height="1.74606" transform="matrix(0.845555 -0.533888 0.573028 0.819536 4.89795 15.9407)" fill="#E3E9F6"/>
<path d="M34.8179 25V6.27664H42.013C45.7577 6.27664 48.2184 8.52344 48.2184 12.0274C48.2184 15.5313 45.7577 17.8049 42.013 17.8049H37.1449V25H34.8179ZM41.8258 8.41645H37.1449V15.6651H41.799C44.2598 15.6651 45.8379 14.2474 45.8379 12.0274C45.8379 9.80733 44.2865 8.41645 41.8258 8.41645ZM61.6318 22.9939H62.3272V25H61.1236C59.3047 25 58.6895 24.2243 58.6628 22.8869C57.8069 24.1173 56.4427 25.1605 54.0889 25.1605C51.0932 25.1605 49.0604 23.6626 49.0604 21.1751C49.0604 18.4468 50.9595 16.9222 54.5436 16.9222H58.5558V15.986C58.5558 14.2207 57.2987 13.1508 55.1588 13.1508C53.233 13.1508 51.9491 14.0602 51.6816 15.4511H49.4883C49.8093 12.7763 51.9759 11.1982 55.2658 11.1982C58.743 11.1982 60.7491 12.9368 60.7491 16.1198V22.0845C60.7491 22.8067 61.0166 22.9939 61.6318 22.9939ZM58.5558 19.4365V18.7678H54.3297C52.3771 18.7678 51.2804 19.49 51.2804 21.0414C51.2804 22.3787 52.4306 23.2882 54.2494 23.2882C56.9777 23.2882 58.5558 21.71 58.5558 19.4365ZM74.7659 13.7125L75.0601 11.3587H76.9592V24.3313C76.9592 28.2632 74.8729 30.51 70.1921 30.51C66.7149 30.51 64.2808 28.8784 63.9331 25.8827H66.1799C66.5544 27.5945 68.079 28.5574 70.3526 28.5574C73.2146 28.5574 74.7659 27.2201 74.7659 24.2511V22.6462C73.8565 24.1976 72.3854 25.1605 70.0851 25.1605C66.3137 25.1605 63.5319 22.6195 63.5319 18.1794C63.5319 14.0067 66.3137 11.1982 70.0851 11.1982C72.3854 11.1982 73.91 12.1879 74.7659 13.7125ZM70.2991 23.2079C72.9738 23.2079 74.7927 21.1483 74.7927 18.2328C74.7927 15.2371 72.9738 13.1508 70.2991 13.1508C67.5975 13.1508 65.7787 15.2104 65.7787 18.1794C65.7787 21.1483 67.5975 23.2079 70.2991 23.2079ZM80.268 25V6.27664H92.1975V8.41645H82.595V14.4079H90.5926V16.5477H82.595V22.8602H92.5452V25H80.268ZM106.507 22.9939H107.203V25H105.999C104.18 25 103.565 24.2243 103.538 22.8869C102.682 24.1173 101.318 25.1605 98.9644 25.1605C95.9687 25.1605 93.9359 23.6626 93.9359 21.1751C93.9359 18.4468 95.8349 16.9222 99.4191 16.9222H103.431V15.986C103.431 14.2207 102.174 13.1508 100.034 13.1508C98.1085 13.1508 96.8246 14.0602 96.5571 15.4511H94.3638C94.6848 12.7763 96.8513 11.1982 100.141 11.1982C103.619 11.1982 105.625 12.9368 105.625 16.1198V22.0845C105.625 22.8067 105.892 22.9939 106.507 22.9939ZM103.431 19.4365V18.7678H99.2051C97.2526 18.7678 96.1559 19.49 96.1559 21.0414C96.1559 22.3787 97.3061 23.2882 99.1249 23.2882C101.853 23.2882 103.431 21.71 103.431 19.4365ZM108.327 20.5064H110.574C110.654 22.1113 112.072 23.2882 114.345 23.2882C116.271 23.2882 117.635 22.459 117.635 21.2018C117.635 19.49 116.137 19.3562 114.105 19.1155C111.055 18.7411 108.621 18.1259 108.621 15.2906C108.621 12.8031 110.895 11.1715 113.971 11.1982C117.074 11.225 119.32 12.6693 119.534 15.5046H117.288C117.127 14.1137 115.843 13.0705 113.971 13.0705C112.072 13.0705 110.788 13.873 110.788 15.1301C110.788 16.628 112.232 16.8152 114.212 17.0559C117.314 17.4304 119.802 18.0189 119.802 21.0414C119.802 23.5824 117.368 25.1605 114.345 25.1605C110.815 25.1605 108.381 23.5021 108.327 20.5064ZM125.882 25.0803L120.559 11.3587H122.886L127.085 22.245L131.151 11.3587H133.478L127.192 27.3003C126.336 29.4936 125.828 30.3495 123.902 30.3495H121.281V28.3435H123.234C124.491 28.3435 124.705 28.0225 125.213 26.7386L125.882 25.0803Z" fill="#0C1E3E"/>
<defs>
<filter id="filter0_d_61_5475" x="0.226982" y="2.82065" width="31.6872" height="28.1226" filterUnits="userSpaceOnUse" color-interpolation-filters="sRGB">
<feFlood flood-opacity="0" result="BackgroundImageFix"/>
<feColorMatrix in="SourceAlpha" type="matrix" values="0 0 0 0 0 0 0 0 0 0 0 0 0 0 0 0 0 0 127 0" result="hardAlpha"/>
<feOffset dy="3.34531"/>
<feGaussianBlur stdDeviation="1.96537"/>
<feComposite in2="hardAlpha" operator="out"/>
<feColorMatrix type="matrix" values="0 0 0 0 0.0470588 0 0 0 0 0.117647 0 0 0 0 0.243137 0 0 0 0.26 0"/>
<feBlend mode="normal" in2="BackgroundImageFix" result="effect1_dropShadow_61_5475"/>
<feBlend mode="normal" in="SourceGraphic" in2="effect1_dropShadow_61_5475" result="shape"/>
</filter>
</defs>
</svg>
