<svg width="32" height="32" viewBox="0 0 32 32" fill="none" xmlns="http://www.w3.org/2000/svg">
<circle cx="16" cy="16" r="16" fill="url(#paint0_linear_21_1390)"/>
<path d="M16.7072 13.4072L17.65 14.35C19.4724 16.1724 19.4724 19.1272 17.65 20.9496L17.4142 21.1853C15.5918 23.0078 12.637 23.0078 10.8146 21.1853C8.99214 19.3629 8.99214 16.4081 10.8146 14.5857L11.7574 15.5285C10.4556 16.8302 10.4556 18.9408 11.7574 20.2425C13.0591 21.5443 15.1697 21.5443 16.4714 20.2425L16.7072 20.0068C18.0089 18.7051 18.0089 16.5945 16.7072 15.2928L15.7644 14.35L16.7072 13.4072ZM21.1855 17.4141L20.2427 16.4713C21.5444 15.1695 21.5444 13.059 20.2427 11.7572C18.941 10.4555 16.8304 10.4555 15.5286 11.7572L15.293 11.9929C13.9912 13.2947 13.9912 15.4053 15.293 16.707L16.2358 17.6498L15.293 18.5926L14.3501 17.6498C12.5277 15.8273 12.5277 12.8726 14.3501 11.0501L14.5858 10.8144C16.4083 8.99199 19.363 8.99199 21.1855 10.8144C23.008 12.6369 23.008 15.5917 21.1855 17.4141Z" fill="#E3E9F6"/>
<defs>
<linearGradient id="paint0_linear_21_1390" x1="26" y1="2" x2="4.5" y2="28" gradientUnits="userSpaceOnUse">
<stop stop-color="#1D5CD3"/>
<stop offset="1" stop-color="#5281D8"/>
</linearGradient>
</defs>
</svg>
