<svg width="32" height="32" viewBox="0 0 32 32" fill="none" xmlns="http://www.w3.org/2000/svg">
<circle cx="16" cy="16" r="16" fill="url(#paint0_linear_21_1397)"/>
<path d="M12 13.3333V12.6667C12 10.4575 13.7909 8.66666 16 8.66666C18.2091 8.66666 20 10.4575 20 12.6667V13.3333H21.3333C21.7015 13.3333 22 13.6318 22 14V22C22 22.3682 21.7015 22.6667 21.3333 22.6667H10.6667C10.2985 22.6667 10 22.3682 10 22V14C10 13.6318 10.2985 13.3333 10.6667 13.3333H12ZM20.6667 14.6667H11.3333V21.3333H20.6667V14.6667ZM15.3333 18.4883C14.9348 18.2577 14.6667 17.8269 14.6667 17.3333C14.6667 16.5969 15.2636 16 16 16C16.7364 16 17.3333 16.5969 17.3333 17.3333C17.3333 17.8269 17.0652 18.2577 16.6667 18.4883V20H15.3333V18.4883ZM13.3333 13.3333H18.6667V12.6667C18.6667 11.1939 17.4727 9.99999 16 9.99999C14.5272 9.99999 13.3333 11.1939 13.3333 12.6667V13.3333Z" fill="#E3E9F6"/>
<defs>
<linearGradient id="paint0_linear_21_1397" x1="26" y1="2" x2="4.5" y2="28" gradientUnits="userSpaceOnUse">
<stop stop-color="#1D5CD3"/>
<stop offset="1" stop-color="#5281D8"/>
</linearGradient>
</defs>
</svg>
