<svg width="42" height="42" viewBox="0 0 42 42" fill="none" xmlns="http://www.w3.org/2000/svg">
<circle cx="21" cy="21" r="21" fill="#EBEAFA" fill-opacity="0.1"/>
<path d="M14.7628 26H29V14H13V27.3851L14.7628 26ZM15.4545 28L11 31.5V13C11 12.4477 11.4477 12 12 12H30C30.5523 12 31 12.4477 31 13V27C31 27.5523 30.5523 28 30 28H15.4545ZM20 23H22V25H20V23ZM17.5673 17.8135C17.8864 16.2092 19.302 15 21 15C22.933 15 24.5 16.567 24.5 18.5C24.5 20.433 22.933 22 21 22H20V20H21C21.8284 20 22.5 19.3284 22.5 18.5C22.5 17.6716 21.8284 17 21 17C20.2723 17 19.6656 17.5182 19.5288 18.2058L17.5673 17.8135Z" fill="#EBEAFA"/>
</svg>
