<svg width="40" height="40" viewBox="0 0 40 40" fill="none" xmlns="http://www.w3.org/2000/svg">
<circle cx="20" cy="20" r="19.5" fill="#E3E9F6" stroke="#5281D8"/>
<path d="M20 9L28.2169 10.826C28.6745 10.9277 29 11.3335 29 11.8022V21.7889C29 23.795 27.9974 25.6684 26.3282 26.7812L20 31L13.6718 26.7812C12.0026 25.6684 11 23.795 11 21.7889V11.8022C11 11.3335 11.3255 10.9277 11.7831 10.826L20 9ZM20 11.0488L13 12.6043V21.7889C13 23.1263 13.6684 24.3752 14.7812 25.1171L20 28.5963L25.2188 25.1171C26.3316 24.3752 27 23.1263 27 21.7889V12.6043L20 11.0488ZM24.4524 16.2218L25.8666 17.636L19.5026 24L15.26 19.7574L16.6742 18.3431L19.5019 21.1709L24.4524 16.2218Z" fill="#1D5CD3"/>
</svg>
