<svg width="40" height="40" viewBox="0 0 40 40" fill="none" xmlns="http://www.w3.org/2000/svg">
<circle cx="20" cy="20" r="19.5" fill="#E3E9F6" stroke="#5281D8"/>
<path d="M25 14C24.4477 14 24 13.5523 24 13C24 12.4477 24.4477 12 25 12C25.5523 12 26 12.4477 26 13C26 13.5523 25.5523 14 25 14ZM25 16C26.6569 16 28 14.6568 28 13C28 11.3432 26.6569 10 25 10C23.3431 10 22 11.3432 22 13C22 14.6568 23.3431 16 25 16ZM15 11C12.7909 11 11 12.7909 11 15V17H13V15C13 13.8954 13.8954 13 15 13H18V11H15ZM25 29C27.2091 29 29 27.2091 29 25V23H27V25C27 26.1046 26.1046 27 25 27H22V29H25ZM16 21C16 20.4477 15.5523 20 15 20C14.4477 20 14 20.4477 14 21C14 21.5523 14.4477 22 15 22C15.5523 22 16 21.5523 16 21ZM18 21C18 22.6569 16.6568 24 15 24C13.3432 24 12 22.6569 12 21C12 19.3431 13.3432 18 15 18C16.6568 18 18 19.3431 18 21ZM25 19C23.8954 19 23 19.8954 23 21H21C21 18.7909 22.7909 17 25 17C27.2091 17 29 18.7909 29 21H27C27 19.8954 26.1046 19 25 19ZM13 29C13 27.8954 13.8954 27 15 27C16.1046 27 17 27.8954 17 29H19C19 26.7909 17.2091 25 15 25C12.7909 25 11 26.7909 11 29H13Z" fill="#1D5CD3"/>
</svg>
