<svg width="16" height="16" viewBox="0 0 16 16" fill="none" xmlns="http://www.w3.org/2000/svg">
<path d="M4.83574 12.3298L5.31889 12.6115C6.12606 13.0822 7.0434 13.3335 8.00067 13.3335C10.9462 13.3335 13.334 10.9457 13.334 8.00016C13.334 5.05464 10.9462 2.66683 8.00067 2.66683C5.05513 2.66683 2.66732 5.05464 2.66732 8.00016C2.66732 8.9577 2.9188 9.87536 3.38977 10.6827L3.67136 11.1654L3.2357 12.7664L4.83574 12.3298ZM1.33677 14.6668L2.23808 11.3545C1.66329 10.3692 1.33398 9.22316 1.33398 8.00016C1.33398 4.31826 4.31875 1.3335 8.00067 1.3335C11.6825 1.3335 14.6673 4.31826 14.6673 8.00016C14.6673 11.682 11.6825 14.6668 8.00067 14.6668C6.77807 14.6668 5.63234 14.3378 4.64724 13.7633L1.33677 14.6668ZM5.59488 4.87238C5.68413 4.86611 5.77368 4.86515 5.86306 4.86951C5.89916 4.87188 5.9351 4.87606 5.97106 4.88021C6.07723 4.89247 6.19398 4.95713 6.23324 5.04612C6.43212 5.49707 6.62509 5.9506 6.81213 6.40658C6.8534 6.50724 6.82853 6.63772 6.75 6.76396C6.71013 6.8287 6.64752 6.9195 6.57498 7.01236C6.49959 7.10883 6.33732 7.28623 6.33732 7.28623C6.33732 7.28623 6.27158 7.36503 6.29636 7.4631C6.30602 7.50016 6.3368 7.55416 6.36472 7.59956C6.38018 7.6247 6.39453 7.64716 6.40384 7.6627C6.57446 7.94756 6.8038 8.23636 7.08393 8.5079C7.1642 8.5857 7.24206 8.6651 7.3258 8.73883C7.638 9.0141 7.9912 9.23903 8.37266 9.40563L8.37606 9.40716C8.4324 9.43143 8.46133 9.4447 8.5438 9.4797C8.5854 9.4973 8.62793 9.5125 8.6716 9.52403C8.6874 9.52816 8.7036 9.5305 8.71986 9.53163C8.82766 9.5381 8.89 9.46896 8.9166 9.43716C9.39893 8.85283 9.44306 8.8147 9.4464 8.81496V8.81603C9.5098 8.74923 9.60946 8.72603 9.6984 8.7315C9.739 8.73396 9.7794 8.74176 9.81633 8.75863C10.1709 8.92036 10.7505 9.17263 10.7505 9.17263L11.1382 9.3469C11.2031 9.37823 11.2624 9.45203 11.2653 9.52376C11.267 9.56836 11.2718 9.64036 11.2559 9.7721C11.235 9.94456 11.1825 10.1522 11.1304 10.261C11.0937 10.3374 11.0463 10.4051 10.9911 10.4624C10.9162 10.5402 10.8606 10.5874 10.7706 10.6544C10.7158 10.6952 10.6874 10.7144 10.6874 10.7144C10.5948 10.7728 10.5426 10.802 10.4323 10.8608C10.2607 10.9522 10.0711 11.0047 9.87686 11.0147C9.75306 11.021 9.6296 11.03 9.50593 11.0233C9.50046 11.023 9.12713 10.9656 9.12713 10.9656C8.1792 10.7163 7.30253 10.2492 6.56689 9.6015C6.41648 9.4691 6.277 9.32583 6.13462 9.1841C5.54192 8.59403 5.09321 7.95776 4.82112 7.3559C4.68695 7.0591 4.60199 6.74123 4.60065 6.41415C4.59819 6.00953 4.73066 5.61563 4.97712 5.29474C5.02571 5.23148 5.07182 5.16586 5.15139 5.09074C5.23565 5.01117 5.28928 4.96846 5.34704 4.9389C5.42404 4.89951 5.50862 4.87844 5.59488 4.87238Z" fill="#1948A0"/>
</svg>
